<svg width="139" height="30" viewBox="0 0 139 30" fill="none" xmlns="http://www.w3.org/2000/svg">
<path d="M21.49 23.7589L3.55 11.3839C1.732 10.1299 2.35 7.51886 4.617 6.90486L23.684 1.72986C24.0879 1.58412 24.5207 1.53681 24.9466 1.59186C25.3724 1.64691 25.779 1.80273 26.1326 2.04639C26.4861 2.29005 26.7765 2.61452 26.9795 2.99287C27.1825 3.37122 27.2924 3.79254 27.3 4.22186L26.17 21.7709C26.036 23.8539 23.308 25.0129 21.49 23.7589Z" fill="#E9327C"/>
<path d="M15.7998 26.8141L5.23074 6.14516C4.98914 5.67232 4.88283 5.14193 4.92352 4.6125C4.96421 4.08307 5.15033 3.57516 5.46134 3.14479C5.77236 2.71442 6.19619 2.3783 6.6861 2.1735C7.17601 1.9687 7.71296 1.90318 8.23774 1.98417L27.8248 5.00716C28.2757 5.07677 28.7037 5.25242 29.0736 5.51967C29.4434 5.78693 29.7445 6.13815 29.9522 6.54446C30.1598 6.95077 30.2681 7.40056 30.268 7.85686C30.2679 8.31315 30.1595 8.76292 29.9518 9.16916L20.9288 26.8151C20.6865 27.2866 20.3189 27.6822 19.8664 27.9583C19.4139 28.2345 18.8941 28.3805 18.364 28.3804C17.8339 28.3803 17.3141 28.2341 16.8617 27.9578C16.4093 27.6814 16.0419 27.2857 15.7998 26.8141Z" fill="#1DACE3"/>
<path d="M27.252 4.91789L17.488 3.41089L5.5 6.66589L10.285 16.0269L21.49 23.7589C21.7372 23.9276 22.0091 24.0568 22.296 24.1419L26.552 15.8189L27.252 4.91789Z" fill="#001A49"/>
<path d="M40.408 10.54V12.412H37.024V13.9H39.52V15.688H37.024V19H34.672V10.54H40.408ZM44.5306 19.084C43.8586 19.084 43.2546 18.944 42.7186 18.664C42.1906 18.384 41.7746 17.984 41.4706 17.464C41.1666 16.944 41.0146 16.332 41.0146 15.628C41.0146 14.932 41.1666 14.324 41.4706 13.804C41.7826 13.284 42.2026 12.884 42.7306 12.604C43.2666 12.324 43.8706 12.184 44.5426 12.184C45.2146 12.184 45.8146 12.324 46.3426 12.604C46.8786 12.884 47.2986 13.284 47.6026 13.804C47.9146 14.324 48.0706 14.932 48.0706 15.628C48.0706 16.324 47.9146 16.936 47.6026 17.464C47.2986 17.984 46.8786 18.384 46.3426 18.664C45.8066 18.944 45.2026 19.084 44.5306 19.084ZM44.5306 17.044C44.8586 17.044 45.1306 16.924 45.3466 16.684C45.5706 16.436 45.6826 16.084 45.6826 15.628C45.6826 15.172 45.5706 14.824 45.3466 14.584C45.1306 14.344 44.8626 14.224 44.5426 14.224C44.2226 14.224 43.9546 14.344 43.7386 14.584C43.5226 14.824 43.4146 15.172 43.4146 15.628C43.4146 16.092 43.5186 16.444 43.7266 16.684C43.9346 16.924 44.2026 17.044 44.5306 17.044ZM51.3795 13.456C51.6435 13.072 51.9635 12.768 52.3395 12.544C52.7155 12.32 53.1195 12.208 53.5515 12.208V14.716H52.8915C52.3795 14.716 51.9995 14.816 51.7515 15.016C51.5035 15.216 51.3795 15.564 51.3795 16.06V19H49.0275V12.268H51.3795V13.456ZM63.1907 12.208C64.0387 12.208 64.7027 12.464 65.1827 12.976C65.6707 13.488 65.9147 14.188 65.9147 15.076V19H63.5627V15.388C63.5627 15.028 63.4627 14.748 63.2627 14.548C63.0627 14.348 62.7907 14.248 62.4467 14.248C62.1027 14.248 61.8307 14.348 61.6307 14.548C61.4307 14.748 61.3307 15.028 61.3307 15.388V19H58.9787V15.388C58.9787 15.028 58.8787 14.748 58.6787 14.548C58.4867 14.348 58.2187 14.248 57.8747 14.248C57.5227 14.248 57.2467 14.348 57.0467 14.548C56.8467 14.748 56.7467 15.028 56.7467 15.388V19H54.3947V12.268H56.7467V13.156C56.9547 12.868 57.2227 12.64 57.5507 12.472C57.8867 12.296 58.2707 12.208 58.7027 12.208C59.1987 12.208 59.6387 12.316 60.0227 12.532C60.4147 12.748 60.7227 13.052 60.9467 13.444C61.1867 13.076 61.5027 12.78 61.8947 12.556C62.2867 12.324 62.7187 12.208 63.1907 12.208ZM68.3913 11.644C67.9753 11.644 67.6393 11.532 67.3833 11.308C67.1353 11.076 67.0113 10.788 67.0113 10.444C67.0113 10.092 67.1353 9.8 67.3833 9.568C67.6393 9.336 67.9753 9.22 68.3913 9.22C68.7993 9.22 69.1273 9.336 69.3753 9.568C69.6313 9.8 69.7593 10.092 69.7593 10.444C69.7593 10.788 69.6313 11.076 69.3753 11.308C69.1273 11.532 68.7993 11.644 68.3913 11.644ZM69.5553 12.268V19H67.2033V12.268H69.5553ZM74.5307 14.224H73.4747V19H71.1107V14.224H70.3787V12.268H71.1107V12.208C71.1107 11.344 71.3627 10.684 71.8667 10.228C72.3787 9.764 73.1107 9.532 74.0627 9.532C74.2547 9.532 74.4027 9.536 74.5067 9.544V11.548C74.4427 11.54 74.3547 11.536 74.2427 11.536C73.9867 11.536 73.7987 11.596 73.6787 11.716C73.5587 11.828 73.4907 12.012 73.4747 12.268H74.5307V14.224ZM82.6192 12.268L78.3472 22.204H75.7912L77.3992 18.712L74.6392 12.268H77.2552L78.6712 16.084L80.0392 12.268H82.6192ZM88.5865 17.62H85.5865L85.1305 19H82.6585L85.7425 10.54H88.4545L91.5265 19H89.0425L88.5865 17.62ZM87.9985 15.82L87.0865 13.084L86.1865 15.82H87.9985ZM94.6451 10.54V19H92.2931V10.54H94.6451Z" fill="#001A49"/>
</svg>
